<svg id="Layer_1" data-name="Layer 1" xmlns="http://www.w3.org/2000/svg" viewBox="0 0 348.55 24"><defs><style>.cls-1{fill:#fff;}</style></defs><path class="cls-1" d="M21.92,12.73c0,3.78-.93,6.66-2.79,8.62s-4.57,3-8.15,3-6.23-1-8.11-3S.05,16.48.05,12.7,1,6.09,2.85,4.12s4.59-3,8.16-3,6.29,1,8.14,2.94S21.92,8.93,21.92,12.73Zm-15.48,0c0,4.34,1.52,6.52,4.54,6.52a3.89,3.89,0,0,0,3.42-1.59,8.59,8.59,0,0,0,1.12-4.93,8.77,8.77,0,0,0-1.13-5A3.86,3.86,0,0,0,11,6.14C8,6.14,6.44,8.34,6.44,12.73Z"/><path class="cls-1" d="M27.55,24V1.51h6.08V19.09h8.66V24Z"/><path class="cls-1" d="M61.26,24l-1.11-4.21h-7.3L51.71,24H45L52.37,1.42h8.1L67.9,24Zm-2.37-9.2-1-3.69c-.22-.82-.5-1.88-.82-3.18s-.54-2.24-.64-2.8c-.09.52-.27,1.38-.55,2.58s-.87,3.57-1.8,7.09Z"/><path class="cls-1" d="M96.2,24H89l-2.15-9.8c-.1-.41-.26-1.22-.48-2.44S86,9.52,85.89,8.7c-.08.66-.21,1.49-.4,2.48s-.37,1.9-.54,2.73S84,18.1,82.71,24H75.52L70,1.51h5.86l2.44,11.28q.83,3.73,1.14,5.95c.13-1,.37-2.47.71-4.26s.67-3.28,1-4.46l2-8.51h5.63L90.61,10c.33,1.36.66,2.94,1,4.72s.57,3.12.68,4c.13-1.14.5-3.11,1.09-5.92L95.87,1.51h5.86Z"/><path class="cls-1" d="M125.33,1.51V15.05a9,9,0,0,1-2.5,6.83c-1.66,1.62-4.07,2.43-7.2,2.43s-5.42-.79-7.07-2.36-2.47-3.82-2.47-6.76V1.51h6.11v13.2a5.44,5.44,0,0,0,.89,3.46,3.84,3.84,0,0,0,5.33,0,5.71,5.71,0,0,0,.84-3.5V1.51Z"/><path class="cls-1" d="M153,24h-8L136.86,8.16h-.14c.2,2.49.29,4.39.29,5.7V24h-5.38V1.51h7.94l8.18,15.63h.09q-.21-3.41-.21-5.46V1.51H153Z"/><path class="cls-1" d="M169.27,24l-4.6-16.2h-.13c.21,2.76.32,4.91.32,6.43V24h-5.38V1.51h8.09l4.69,16h.12l4.6-16h8.1V24H179.5V14.14q0-.77,0-1.71c0-.62.08-2.15.2-4.6h-.14L175.06,24Z"/><path class="cls-1" d="M191.5,24V1.51h6.11V24Z"/><path class="cls-1" d="M227.6,24l-1.11-4.21h-7.3L218.05,24h-6.68l7.34-22.58h8.11L234.25,24Zm-2.37-9.2-1-3.69c-.22-.82-.5-1.88-.82-3.18s-.54-2.24-.64-2.8q-.13.78-.54,2.58c-.28,1.2-.88,3.57-1.81,7.09Z"/><path class="cls-1" d="M238.25,1.51h7.84c3.06,0,5.33.46,6.81,1.36a4.62,4.62,0,0,1,2.22,4.24,5.33,5.33,0,0,1-1,3.23,4.26,4.26,0,0,1-2.55,1.72v.16a5.2,5.2,0,0,1,3,1.84,5.57,5.57,0,0,1,.94,3.36,5.76,5.76,0,0,1-2.3,4.82A10.09,10.09,0,0,1,247,24h-8.75Zm6.08,8.63h1.83a3.3,3.3,0,0,0,2-.54,1.85,1.85,0,0,0,.71-1.6c0-1.26-.95-1.89-2.86-1.89h-1.7Zm0,4.45v4.72h2.13q2.85,0,2.85-2.4a2,2,0,0,0-.76-1.72,3.53,3.53,0,0,0-2.21-.6Z"/><path class="cls-1" d="M261.05,24V1.51h6.11V24Z"/><path class="cls-1" d="M294.63,12.73c0,3.78-.92,6.66-2.78,8.62s-4.57,3-8.15,3-6.23-1-8.12-3-2.82-4.86-2.82-8.64.94-6.61,2.81-8.58,4.59-3,8.16-3,6.29,1,8.14,2.94S294.63,8.93,294.63,12.73Zm-15.47,0c0,4.34,1.51,6.52,4.54,6.52a3.89,3.89,0,0,0,3.42-1.59,8.68,8.68,0,0,0,1.11-4.93,8.69,8.69,0,0,0-1.13-5,3.84,3.84,0,0,0-3.37-1.61Q279.15,6.14,279.16,12.73Z"/><path class="cls-1" d="M321.68,24h-8L305.5,8.16h-.14c.19,2.49.29,4.39.29,5.7V24h-5.38V1.51h7.94l8.18,15.63h.09c-.14-2.27-.22-4.09-.22-5.46V1.51h5.42Z"/><path class="cls-1" d="M341.91,24l-1.11-4.21h-7.3L332.36,24h-6.68L333,1.42h8.11L348.56,24Zm-2.37-9.2-1-3.69c-.22-.82-.5-1.88-.82-3.18s-.54-2.24-.64-2.8q-.14.78-.54,2.58c-.28,1.2-.88,3.57-1.81,7.09Z"/></svg>