<svg id="Layer_1" data-name="Layer 1" xmlns="http://www.w3.org/2000/svg" viewBox="0 0 309.35 24"><defs><style>.cls-1{fill:#fff;}</style></defs><path class="cls-1" d="M21.92,12.73c0,3.78-.93,6.66-2.79,8.62s-4.57,3-8.15,3-6.23-1-8.11-3S.05,16.48.05,12.7,1,6.09,2.85,4.12s4.59-3,8.16-3,6.29,1,8.14,2.94S21.92,8.93,21.92,12.73Zm-15.48,0c0,4.34,1.52,6.52,4.54,6.52a3.89,3.89,0,0,0,3.42-1.59,8.59,8.59,0,0,0,1.12-4.93,8.77,8.77,0,0,0-1.13-5A3.86,3.86,0,0,0,11,6.14C8,6.14,6.44,8.34,6.44,12.73Z"/><path class="cls-1" d="M33.21,24h-6V.07h6Z"/><path class="cls-1" d="M50.32,24l-1.15-2.31h-.12a6.82,6.82,0,0,1-2.48,2.06,8.16,8.16,0,0,1-3.26.56,5.12,5.12,0,0,1-3.88-1.48A5.76,5.76,0,0,1,38,18.68,4.71,4.71,0,0,1,40,14.53,10.71,10.71,0,0,1,45.57,13l2.91-.09v-.25a1.89,1.89,0,0,0-2.13-2.15,12.7,12.7,0,0,0-4.84,1.29l-1.74-4a16.81,16.81,0,0,1,7.69-1.56,7.44,7.44,0,0,1,5.19,1.66,5.9,5.9,0,0,1,1.84,4.64V24Zm-4.46-3.94a2.72,2.72,0,0,0,1.87-.69,2.29,2.29,0,0,0,.78-1.8V16.22l-1.39.06c-2,.07-3,.8-3,2.18C44.16,19.53,44.72,20.06,45.86,20.06Z"/><path class="cls-1" d="M75.15,24l-2-8.31-.47-2.5-.3-2h-.1q-.75,4.3-1,5.43L69.54,24H63.22L58.47,6.57h5.92l1.41,6.69A40.9,40.9,0,0,1,66.59,19h.09a39.16,39.16,0,0,1,.85-5.39l1.61-7h6.64l1.48,7.13A52,52,0,0,1,78.15,19h.1c.06-.78.16-1.75.3-2.92A28,28,0,0,1,79,13.26l1.54-6.69h5.8L81.58,24Z"/><path class="cls-1" d="M102.82,24l-.76-2.17h-.35a4.9,4.9,0,0,1-2.1,1.84,7.39,7.39,0,0,1-3.16.64A5.93,5.93,0,0,1,92,22.64a6.56,6.56,0,0,1-1.6-4.72V6.57h6v9.52a5.55,5.55,0,0,0,.48,2.59,1.67,1.67,0,0,0,1.59.87,2.31,2.31,0,0,0,2.22-1.22,9.3,9.3,0,0,0,.66-4.13V6.57h6V24Z"/><path class="cls-1" d="M124.08,24V14.49a5.51,5.51,0,0,0-.5-2.62A1.71,1.71,0,0,0,122,11a2.33,2.33,0,0,0-2.2,1.21,9.22,9.22,0,0,0-.68,4.17V24h-6V6.57h4.54l.75,2.16h.35a4.82,4.82,0,0,1,2.14-1.85A7.5,7.5,0,0,1,124,6.27a6,6,0,0,1,4.49,1.67,6.51,6.51,0,0,1,1.61,4.72V24Z"/><path class="cls-1" d="M157.15,24V14.53a5.76,5.76,0,0,0-.48-2.66,1.62,1.62,0,0,0-1.53-.88,2.14,2.14,0,0,0-2,1.18,8.1,8.1,0,0,0-.65,3.71V24h-6V14.53a5.93,5.93,0,0,0-.46-2.66,1.55,1.55,0,0,0-1.49-.88,2.16,2.16,0,0,0-2.06,1.26,9.61,9.61,0,0,0-.65,4.12V24h-6V6.57h4.53l.76,2.16h.35a4.47,4.47,0,0,1,2-1.83,6.84,6.84,0,0,1,3-.63c2.51,0,4.28.76,5.29,2.29h.48a5,5,0,0,1,2.05-1.69,6.94,6.94,0,0,1,2.9-.6,6,6,0,0,1,4.57,1.58,6.87,6.87,0,0,1,1.48,4.81V24Z"/><path class="cls-1" d="M168.71,2.24a2.55,2.55,0,0,1,.75-2,4.78,4.78,0,0,1,4.88,0,2.52,2.52,0,0,1,.77,2c0,1.76-1.07,2.64-3.22,2.64S168.71,4,168.71,2.24ZM174.88,24h-6V6.57h6Z"/><path class="cls-1" d="M204.56,24l-1.11-4.21h-7.3L195,24h-6.68l7.34-22.58h8.11L211.2,24Zm-2.37-9.2-1-3.69c-.22-.82-.5-1.88-.82-3.18s-.54-2.24-.64-2.8c-.09.52-.27,1.38-.55,2.58s-.87,3.57-1.8,7.09Z"/><path class="cls-1" d="M225.5,6.27A5.22,5.22,0,0,1,230,8.65a11.31,11.31,0,0,1,1.67,6.6A11.46,11.46,0,0,1,230,21.9a5.4,5.4,0,0,1-4.69,2.41,6.43,6.43,0,0,1-1.72-.21,4.94,4.94,0,0,1-1.34-.58,6.47,6.47,0,0,1-1.38-1.23h-.37L219.55,24h-4.69V.07h6V5.48c0,.65-.07,1.76-.22,3.34h.22a5.49,5.49,0,0,1,2-1.95A5.58,5.58,0,0,1,225.5,6.27ZM223.3,11a2.07,2.07,0,0,0-1.85.87,5.11,5.11,0,0,0-.58,2.76v.84a6,6,0,0,0,.58,3.07,2.09,2.09,0,0,0,1.91.93A1.77,1.77,0,0,0,225,18.38a7,7,0,0,0,.57-3.19Q225.56,11,223.3,11Z"/><path class="cls-1" d="M236.56,2.24a2.55,2.55,0,0,1,.76-2,4.76,4.76,0,0,1,4.87,0,2.49,2.49,0,0,1,.77,2q0,2.64-3.21,2.64C237.63,4.88,236.56,4,236.56,2.24ZM242.73,24h-6V6.57h6Z"/><path class="cls-1" d="M265.15,15.25a9.25,9.25,0,0,1-2.3,6.67,8.53,8.53,0,0,1-6.44,2.39,8.34,8.34,0,0,1-6.31-2.45,9.12,9.12,0,0,1-2.35-6.61,9.1,9.1,0,0,1,2.3-6.62,8.57,8.57,0,0,1,6.45-2.36A9.16,9.16,0,0,1,261,7.36a7.46,7.46,0,0,1,3,3.13A10.13,10.13,0,0,1,265.15,15.25Zm-11.29,0a7.71,7.71,0,0,0,.6,3.42,2.08,2.08,0,0,0,2,1.18,2,2,0,0,0,2-1.18,8,8,0,0,0,.58-3.42,7.59,7.59,0,0,0-.59-3.37,2.31,2.31,0,0,0-4,0A7.45,7.45,0,0,0,253.86,15.25Z"/><path class="cls-1" d="M281.15,24V14.49a5.51,5.51,0,0,0-.5-2.62A1.7,1.7,0,0,0,279,11a2.33,2.33,0,0,0-2.2,1.21,9.25,9.25,0,0,0-.67,4.17V24h-6V6.57h4.54l.75,2.16h.36a4.75,4.75,0,0,1,2.13-1.85,7.54,7.54,0,0,1,3.13-.61,6,6,0,0,1,4.5,1.67,6.56,6.56,0,0,1,1.61,4.72V24Z"/><path class="cls-1" d="M304.2,24,303,21.69h-.12a6.82,6.82,0,0,1-2.48,2.06,8.13,8.13,0,0,1-3.26.56,5.08,5.08,0,0,1-3.87-1.48,5.73,5.73,0,0,1-1.42-4.15,4.74,4.74,0,0,1,1.94-4.15A10.71,10.71,0,0,1,299.44,13l2.91-.09v-.25a1.89,1.89,0,0,0-2.12-2.15,12.74,12.74,0,0,0-4.85,1.29l-1.73-4a16.79,16.79,0,0,1,7.69-1.56,7.47,7.47,0,0,1,5.19,1.66,5.94,5.94,0,0,1,1.84,4.64V24Zm-4.46-3.94a2.74,2.74,0,0,0,1.87-.69,2.31,2.31,0,0,0,.77-1.8V16.22l-1.38.06c-2,.07-3,.8-3,2.18C298,19.53,298.6,20.06,299.74,20.06Z"/></svg>